<?xml version="1.0" encoding="UTF-8"?>
<svg width="64" height="64" viewBox="0 0 64 64" xmlns="http://www.w3.org/2000/svg">
  <defs>
    <linearGradient id="iconGradient" x1="0%" y1="0%" x2="100%" y2="100%">
      <stop offset="0%" stop-color="#3B82F6" />
      <stop offset="100%" stop-color="#2563EB" />
    </linearGradient>
  </defs>
  
  <rect width="64" height="64" rx="12" fill="url(#iconGradient)" />
  
  <g fill="#ffffff">
    <!-- A letter -->
    <path d="M24,44 L20,44 L22,38 L18,24 L22,24 L24,34 L26,24 L30,24 L26,38 L28,44 z" />
    
    <!-- I letter -->
    <path d="M32,24 L36,24 L36,44 L32,44 z" />
    
    <!-- Dots representing data or connection points -->
    <circle cx="16" cy="20" r="2" />
    <circle cx="48" cy="20" r="2" />
    <circle cx="16" cy="44" r="2" />
    <circle cx="48" cy="44" r="2" />
    
    <!-- Connection lines -->
    <path d="M16,20 L48,20" stroke="#ffffff" stroke-width="1" fill="none" />
    <path d="M16,44 L48,44" stroke="#ffffff" stroke-width="1" fill="none" />
    <path d="M16,20 L16,44" stroke="#ffffff" stroke-width="1" fill="none" />
    <path d="M48,20 L48,44" stroke="#ffffff" stroke-width="1" fill="none" />
    
    <!-- Digital circuit pattern -->
    <path d="M20,32 L44,32" stroke="#ffffff" stroke-width="1" fill="none" />
    <circle cx="32" cy="32" r="3" />
    <circle cx="40" cy="36" r="2" />
    <path d="M40,32 L40,40" stroke="#ffffff" stroke-width="1" fill="none" />
  </g>
</svg>