<?xml version="1.0" encoding="UTF-8"?>
<svg width="300" height="400" viewBox="0 0 300 400" xmlns="http://www.w3.org/2000/svg">
  <defs>
    <linearGradient id="bodyGradient" x1="0%" y1="0%" x2="100%" y2="100%">
      <stop offset="0%" stop-color="#007bff"/>
      <stop offset="100%" stop-color="#0056b3"/>
    </linearGradient>
    <linearGradient id="faceGradient" x1="0%" y1="0%" x2="100%" y2="100%">
      <stop offset="0%" stop-color="#f8f9fa"/>
      <stop offset="100%" stop-color="#e9ecef"/>
    </linearGradient>
    <linearGradient id="accentGradient" x1="0%" y1="0%" x2="100%" y2="100%">
      <stop offset="0%" stop-color="#17a2b8"/>
      <stop offset="100%" stop-color="#138496"/>
    </linearGradient>
    <filter id="shadow" x="-20%" y="-20%" width="140%" height="140%">
      <feDropShadow dx="3" dy="3" stdDeviation="3" flood-opacity="0.3"/>
    </filter>
  </defs>
  
  <!-- Background - Transparent -->
  <rect width="300" height="400" fill="none"/>
  
  <!-- Robot Body -->
  <g transform="translate(150, 230)">
    <!-- Body Shape -->
    <rect x="-70" y="-80" width="140" height="160" rx="20" fill="url(#bodyGradient)" filter="url(#shadow)"/>
    
    <!-- Chest Panel -->
    <rect x="-50" y="-60" width="100" height="70" rx="10" fill="#0056b3"/>
    <rect x="-40" y="-50" width="80" height="50" rx="5" fill="#004085"/>
    
    <!-- Control Buttons -->
    <circle cx="-25" cy="-30" r="5" fill="#17a2b8"/>
    <circle cx="0" cy="-30" r="5" fill="#28a745"/>
    <circle cx="25" cy="-30" r="5" fill="#ffc107"/>
    
    <!-- Data Display -->
    <rect x="-40" y="-10" width="80" height="20" rx="3" fill="#212529"/>
    <rect x="-35" y="-5" width="15" height="10" fill="#28a745"/>
    <rect x="-15" y="-5" width="30" height="10" fill="#007bff"/>
    <rect x="20" y="-5" width="15" height="10" fill="#17a2b8"/>
    
    <!-- Lower Panel -->
    <rect x="-40" y="20" width="80" height="40" rx="5" fill="#0056b3"/>
    <rect x="-30" y="30" width="60" height="20" rx="3" fill="#004085"/>
    
    <!-- Arms -->
    <rect x="-90" y="-50" width="20" height="100" rx="10" fill="url(#bodyGradient)"/>
    <rect x="70" y="-50" width="20" height="100" rx="10" fill="url(#bodyGradient)"/>
    
    <!-- Arm Joints -->
    <circle cx="-80" cy="-20" r="8" fill="#0056b3"/>
    <circle cx="80" cy="-20" r="8" fill="#0056b3"/>
    
    <!-- Hands -->
    <circle cx="-80" cy="50" r="15" fill="url(#accentGradient)"/>
    <circle cx="80" cy="50" r="15" fill="url(#accentGradient)"/>
  </g>
  
  <!-- Robot Head -->
  <g transform="translate(150, 100)">
    <!-- Head Shape -->
    <rect x="-60" y="-60" width="120" height="100" rx="20" fill="url(#bodyGradient)" filter="url(#shadow)"/>
    
    <!-- Face Plate -->
    <rect x="-50" y="-50" width="100" height="80" rx="15" fill="url(#faceGradient)"/>
    
    <!-- Eyes -->
    <g>
      <!-- Left Eye -->
      <circle cx="-25" cy="-20" r="15" fill="#212529"/>
      <circle cx="-25" cy="-20" r="10" fill="#0056b3">
        <animate attributeName="r" values="10;11;10" dur="3s" repeatCount="indefinite"/>
      </circle>
      <circle cx="-28" cy="-23" r="3" fill="white"/>
      
      <!-- Right Eye -->
      <circle cx="25" cy="-20" r="15" fill="#212529"/>
      <circle cx="25" cy="-20" r="10" fill="#0056b3">
        <animate attributeName="r" values="10;11;10" dur="3s" repeatCount="indefinite"/>
      </circle>
      <circle cx="22" cy="-23" r="3" fill="white"/>
    </g>
    
    <!-- Mouth -->
    <path d="M-25,20 Q0,35 25,20" stroke="#0056b3" stroke-width="5" fill="none"/>
    
    <!-- Antennas -->
    <rect x="-30" y="-70" width="6" height="20" rx="3" fill="url(#bodyGradient)"/>
    <circle cx="-27" cy="-75" r="5" fill="#17a2b8">
      <animate attributeName="opacity" values="0.8;1;0.8" dur="2s" repeatCount="indefinite"/>
    </circle>
    
    <rect x="24" y="-70" width="6" height="20" rx="3" fill="url(#bodyGradient)"/>
    <circle cx="27" cy="-75" r="5" fill="#17a2b8">
      <animate attributeName="opacity" values="0.8;1;0.8" dur="1.5s" repeatCount="indefinite"/>
    </circle>
  </g>
  
  <!-- Robot Legs -->
  <g transform="translate(150, 340)">
    <!-- Left Leg -->
    <rect x="-50" y="-30" width="30" height="80" rx="10" fill="url(#bodyGradient)"/>
    <rect x="-60" y="50" width="40" height="10" rx="5" fill="url(#bodyGradient)"/>
    
    <!-- Right Leg -->
    <rect x="20" y="-30" width="30" height="80" rx="10" fill="url(#bodyGradient)"/>
    <rect x="20" y="50" width="40" height="10" rx="5" fill="url(#bodyGradient)"/>
    
    <!-- Knee Joints -->
    <circle cx="-35" cy="0" r="8" fill="#0056b3"/>
    <circle cx="35" cy="0" r="8" fill="#0056b3"/>
  </g>
  
  <!-- AIPS Text Badge -->
  <g transform="translate(150, 190)">
    <rect x="-30" y="-15" width="60" height="30" rx="15" fill="#0056b3" filter="url(#shadow)"/>
    <text x="0" y="5" font-family="Arial" font-size="16" font-weight="bold" fill="white" text-anchor="middle">AIPS</text>
  </g>
  
  <!-- Digital Circuit Pattern Background -->
  <g stroke="#0056b3" stroke-width="1" opacity="0.1">
    <path d="M70,50 L70,100 L100,100 L100,150 L150,150 L150,200" />
    <path d="M230,50 L230,100 L200,100 L200,150 L150,150" />
    <path d="M150,350 L150,380 L100,380 M150,350 L150,380 L200,380" />
    <circle cx="70" cy="50" r="3" fill="#0056b3"/>
    <circle cx="230" cy="50" r="3" fill="#0056b3"/>
    <circle cx="100" cy="380" r="3" fill="#0056b3"/>
    <circle cx="200" cy="380" r="3" fill="#0056b3"/>
  </g>
</svg>
