<?xml version="1.0" encoding="UTF-8"?>
<svg width="1000" height="600" viewBox="0 0 1000 600" xmlns="http://www.w3.org/2000/svg">
  <defs>
    <linearGradient id="headerGradient" x1="0%" y1="0%" x2="100%" y2="100%">
      <stop offset="0%" stop-color="#0056b3"/>
      <stop offset="100%" stop-color="#17a2b8"/>
    </linearGradient>
    <filter id="shadow" x="-20%" y="-20%" width="140%" height="140%">
      <feDropShadow dx="3" dy="3" stdDeviation="5" flood-opacity="0.2"/>
    </filter>
  </defs>
  
  <!-- Browser Window Frame -->
  <rect width="1000" height="600" rx="10" fill="#f8f9fa" filter="url(#shadow)"/>
  
  <!-- Browser Controls -->
  <rect width="1000" height="40" rx="10 10 0 0" fill="#e9ecef"/>
  <circle cx="25" cy="20" r="7" fill="#ff605c"/>
  <circle cx="50" cy="20" r="7" fill="#ffbd44"/>
  <circle cx="75" cy="20" r="7" fill="#00ca4e"/>
  <rect x="100" y="12" width="780" height="16" rx="8" fill="white"/>
  <text x="120" y="24" font-family="Arial" font-size="10" fill="#6c757d">https://jjshome.github.io/ai-procurement-system/demo/</text>
  
  <!-- Website Content -->
  <!-- Header -->
  <rect x="0" y="40" width="1000" height="80" fill="url(#headerGradient)"/>
  <text x="160" y="80" font-family="Arial" font-size="24" font-weight="bold" fill="white">AI-Powered Procurement System</text>
  <text x="160" y="105" font-family="Arial" font-size="14" fill="white">Experience the future of procurement bidding with artificial intelligence</text>
  <circle cx="80" cy="80" r="30" fill="white"/>
  <circle cx="80" cy="80" r="25" fill="url(#headerGradient)"/>
  <path d="M65,80 Q80,65 95,80 M65,80 Q80,95 95,80" stroke="white" stroke-width="3" fill="none"/>
  
  <!-- Main Content Area -->
  <rect x="40" y="140" width="920" height="440" rx="5" fill="white"/>
  
  <!-- Nav Tabs -->
  <rect x="40" y="140" width="920" height="50" rx="5 5 0 0" fill="#ffffff"/>
  <rect x="50" y="150" width="100" height="40" rx="5 5 0 0" fill="#007bff"/>
  <text x="100" y="175" font-family="Arial" font-size="14" fill="white" text-anchor="middle">Welcome</text>
  
  <rect x="160" y="150" width="140" height="40" rx="5 5 0 0" fill="#f8f9fa"/>
  <text x="230" y="175" font-family="Arial" font-size="14" fill="#6c757d" text-anchor="middle">Opportunity Discovery</text>
  
  <rect x="310" y="150" width="100" height="40" rx="5 5 0 0" fill="#f8f9fa"/>
  <text x="360" y="175" font-family="Arial" font-size="14" fill="#6c757d" text-anchor="middle">Bid Analysis</text>
  
  <rect x="420" y="150" width="150" height="40" rx="5 5 0 0" fill="#f8f9fa"/>
  <text x="495" y="175" font-family="Arial" font-size="14" fill="#6c757d" text-anchor="middle">Document Generation</text>
  
  <rect x="580" y="150" width="100" height="40" rx="5 5 0 0" fill="#f8f9fa"/>
  <text x="630" y="175" font-family="Arial" font-size="14" fill="#6c757d" text-anchor="middle">Collaboration</text>
  
  <!-- Tab Content - Welcome Screen -->
  <g transform="translate(60, 210)">
    <!-- Left Column -->
    <rect x="0" y="0" width="400" height="350" rx="5" fill="white" stroke="#dee2e6" stroke-width="1"/>
    <text x="20" y="30" font-family="Arial" font-size="20" font-weight="bold" fill="#007bff">Welcome to AIPS Demo</text>
    <text x="20" y="60" font-family="Arial" font-size="14" fill="#212529">This interactive demo showcases how our AI-powered</text>
    <text x="20" y="80" font-family="Arial" font-size="14" fill="#212529">procurement system revolutionizes the bidding process</text>
    <text x="20" y="100" font-family="Arial" font-size="14" fill="#212529">for government contracts.</text>
    
    <text x="40" y="140" font-family="Arial" font-size="14" fill="#212529">1. Opportunity Discovery</text>
    <text x="40" y="170" font-family="Arial" font-size="14" fill="#212529">2. Bid Analysis & Strategy</text>
    <text x="40" y="200" font-family="Arial" font-size="14" fill="#212529">3. Document Generation</text>
    <text x="40" y="230" font-family="Arial" font-size="14" fill="#212529">4. Collaborative Review</text>
    <text x="40" y="260" font-family="Arial" font-size="14" fill="#212529">5. Submission & Tracking</text>
    <text x="40" y="290" font-family="Arial" font-size="14" fill="#212529">6. Performance Analytics</text>
    
    <rect x="20" y="310" width="150" height="30" rx="5" fill="#007bff"/>
    <text x="95" y="330" font-family="Arial" font-size="14" fill="white" text-anchor="middle">Start Demo</text>
    
    <!-- Right Column -->
    <g transform="translate(420, 0)">
      <!-- Video Placeholder -->
      <rect x="0" y="0" width="400" height="225" rx="5" fill="#dee2e6"/>
      <rect x="175" y="87.5" width="50" height="50" rx="25" fill="#007bff" opacity="0.9"/>
      <polygon points="185,87.5 215,112.5 185,137.5" fill="white"/>
      
      <!-- Benefits Overview -->
      <rect x="0" y="245" width="400" height="105" rx="5" fill="#f8f9fa"/>
      <text x="20" y="275" font-family="Arial" font-size="16" font-weight="bold" fill="#212529">Benefits Overview</text>
      
      <text x="60" y="305" font-family="Arial" font-size="24" font-weight="bold" fill="#007bff">40%</text>
      <text x="60" y="325" font-family="Arial" font-size="12" fill="#6c757d">Time Saved</text>
      
      <text x="160" y="305" font-family="Arial" font-size="24" font-weight="bold" fill="#007bff">35%</text>
      <text x="160" y="325" font-family="Arial" font-size="12" fill="#6c757d">Success Rate</text>
      
      <text x="260" y="305" font-family="Arial" font-size="24" font-weight="bold" fill="#007bff">60%</text>
      <text x="260" y="325" font-family="Arial" font-size="12" fill="#6c757d">Fewer Issues</text>
      
      <text x="360" y="305" font-family="Arial" font-size="24" font-weight="bold" fill="#007bff">30%</text>
      <text x="360" y="325" font-family="Arial" font-size="12" fill="#6c757d">Cost Savings</text>
    </g>
  </g>
  
  <!-- "Click to Launch" Overlay -->
  <g>
    <rect x="0" y="0" width="1000" height="600" rx="10" fill="#000000" fill-opacity="0.5"/>
    <rect x="300" y="250" width="400" height="100" rx="50" fill="#007bff"/>
    <text x="500" y="310" font-family="Arial" font-size="28" font-weight="bold" fill="white" text-anchor="middle">👆 Click to Launch Demo</text>
  </g>
</svg>
