<?xml version="1.0" encoding="UTF-8"?>
<svg width="600" height="400" viewBox="0 0 600 400" xmlns="http://www.w3.org/2000/svg">
  <defs>
    <linearGradient id="bgGradient" x1="0%" y1="0%" x2="100%" y2="100%">
      <stop offset="0%" stop-color="#f8f9fa"/>
      <stop offset="100%" stop-color="#e9ecef"/>
    </linearGradient>
    <linearGradient id="chartGradient" x1="0%" y1="0%" x2="0%" y2="100%">
      <stop offset="0%" stop-color="#007bff" stop-opacity="0.8"/>
      <stop offset="100%" stop-color="#007bff" stop-opacity="0.1"/>
    </linearGradient>
    <linearGradient id="successGradient" x1="0%" y1="0%" x2="0%" y2="100%">
      <stop offset="0%" stop-color="#28a745" stop-opacity="0.8"/>
      <stop offset="100%" stop-color="#28a745" stop-opacity="0.1"/>
    </linearGradient>
    <linearGradient id="warningGradient" x1="0%" y1="0%" x2="0%" y2="100%">
      <stop offset="0%" stop-color="#ffc107" stop-opacity="0.8"/>
      <stop offset="100%" stop-color="#ffc107" stop-opacity="0.1"/>
    </linearGradient>
    <linearGradient id="primaryGradient" x1="0%" y1="0%" x2="100%" y2="100%">
      <stop offset="0%" stop-color="#007bff"/>
      <stop offset="100%" stop-color="#0056b3"/>
    </linearGradient>
    <filter id="shadow" x="-20%" y="-20%" width="140%" height="140%">
      <feDropShadow dx="3" dy="3" stdDeviation="5" flood-opacity="0.2"/>
    </filter>
  </defs>
  
  <!-- Background -->
  <rect width="600" height="400" rx="20" fill="url(#bgGradient)"/>
  
  <!-- Analytics Dashboard -->
  <g transform="translate(300, 200)">
    <!-- Main Chart Area -->
    <rect x="-200" y="-100" width="400" height="200" rx="10" fill="white" filter="url(#shadow)"/>
    
    <!-- Line Chart -->
    <g transform="translate(-160, -60)">
      <text x="0" y="-15" font-family="Arial" font-size="12" fill="#6c757d">Success Probability</text>
      <!-- Chart Frame -->
      <rect x="0" y="0" width="160" height="100" fill="none" stroke="#dee2e6" stroke-width="1"/>
      
      <!-- Grid Lines -->
      <line x1="0" y1="25" x2="160" y2="25" stroke="#f8f9fa" stroke-width="1"/>
      <line x1="0" y1="50" x2="160" y2="50" stroke="#f8f9fa" stroke-width="1"/>
      <line x1="0" y1="75" x2="160" y2="75" stroke="#f8f9fa" stroke-width="1"/>
      
      <line x1="40" y1="0" x2="40" y2="100" stroke="#f8f9fa" stroke-width="1"/>
      <line x1="80" y1="0" x2="80" y2="100" stroke="#f8f9fa" stroke-width="1"/>
      <line x1="120" y1="0" x2="120" y2="100" stroke="#f8f9fa" stroke-width="1"/>
      
      <!-- Line Chart -->
      <path d="M0,80 L40,60 L80,40 L120,30 L160,20" fill="none" stroke="#007bff" stroke-width="3"/>
      <circle cx="0" cy="80" r="4" fill="#007bff"/>
      <circle cx="40" cy="60" r="4" fill="#007bff"/>
      <circle cx="80" cy="40" r="4" fill="#007bff"/>
      <circle cx="120" cy="30" r="4" fill="#007bff"/>
      <circle cx="160" cy="20" r="4" fill="#007bff"/>
      
      <!-- Area Under Line -->
      <path d="M0,80 L40,60 L80,40 L120,30 L160,20 L160,100 L0,100 Z" fill="url(#chartGradient)"/>
    </g>
    
    <!-- Bar Chart -->
    <g transform="translate(50, -60)">
      <text x="0" y="-15" font-family="Arial" font-size="12" fill="#6c757d">Bid Performance</text>
      <!-- Chart Frame -->
      <rect x="0" y="0" width="100" height="100" fill="none" stroke="#dee2e6" stroke-width="1"/>
      
      <!-- Grid Lines -->
      <line x1="0" y1="25" x2="100" y2="25" stroke="#f8f9fa" stroke-width="1"/>
      <line x1="0" y1="50" x2="100" y2="50" stroke="#f8f9fa" stroke-width="1"/>
      <line x1="0" y1="75" x2="100" y2="75" stroke="#f8f9fa" stroke-width="1"/>
      
      <!-- Bars -->
      <rect x="10" y="70" width="15" height="30" fill="#6c757d"/>
      <rect x="30" y="45" width="15" height="55" fill="#007bff"/>
      <rect x="50" y="25" width="15" height="75" fill="#28a745"/>
      <rect x="70" y="60" width="15" height="40" fill="#ffc107"/>
    </g>
    
    <!-- Prediction Meter -->
    <g transform="translate(-130, 80)">
      <text x="100" y="-40" font-family="Arial" font-size="12" fill="#6c757d" text-anchor="middle">Bid Success Prediction</text>
      
      <!-- Meter -->
      <path d="M50,0 A50,50 0 0,1 150,0" fill="none" stroke="#dee2e6" stroke-width="5"/>
      <path d="M50,0 A50,50 0 0,1 120,35" fill="none" stroke="#28a745" stroke-width="5"/>
      
      <!-- Needle -->
      <line x1="100" y1="0" x2="120" y2="35" stroke="#212529" stroke-width="2"/>
      <circle cx="100" cy="0" r="5" fill="#212529"/>
      
      <!-- Percentage -->
      <text x="100" y="20" font-family="Arial" font-size="14" font-weight="bold" fill="#28a745" text-anchor="middle">75%</text>
    </g>
    
    <!-- Price Analysis -->
    <g transform="translate(130, 80)">
      <text x="0" y="-40" font-family="Arial" font-size="12" fill="#6c757d">Optimal Price Range</text>
      
      <!-- Range Slider -->
      <line x1="-50" y1="0" x2="50" y2="0" stroke="#dee2e6" stroke-width="5" stroke-linecap="round"/>
      <line x1="-30" y1="0" x2="25" y2="0" stroke="#007bff" stroke-width="5" stroke-linecap="round"/>
      
      <!-- Markers -->
      <circle cx="-30" cy="0" r="8" fill="#007bff"/>
      <circle cx="25" cy="0" r="8" fill="#007bff"/>
      
      <!-- Labels -->
      <text x="-30" y="20" font-family="Arial" font-size="10" fill="#6c757d" text-anchor="middle">$680K</text>
      <text x="25" y="20" font-family="Arial" font-size="10" fill="#6c757d" text-anchor="middle">$820K</text>
    </g>
  </g>
  
  <!-- Title -->
  <text x="300" y="50" font-family="Arial" font-size="24" font-weight="bold" fill="#0056b3" text-anchor="middle">Predictive Analytics</text>
  
  <!-- Description -->
  <text x="300" y="350" font-family="Arial" font-size="16" fill="#212529" text-anchor="middle">Forecasts bid success probability and optimal pricing strategies</text>
</svg>
