<?xml version="1.0" encoding="UTF-8" standalone="no"?>
<svg xmlns="http://www.w3.org/2000/svg" width="200" height="200" viewBox="0 0 200 200">
  <defs>
    <linearGradient id="gradient" x1="0%" y1="0%" x2="100%" y2="100%">
      <stop offset="0%" stop-color="#0056b3" />
      <stop offset="100%" stop-color="#17a2b8" />
    </linearGradient>
  </defs>
  <circle cx="100" cy="100" r="90" fill="url(#gradient)" />
  <circle cx="100" cy="100" r="70" fill="#ffffff" opacity="0.1" />
  
  <!-- Circuit Board Pattern -->
  <path d="M40,100 L80,100 M120,100 L160,100 M100,40 L100,80 M100,120 L100,160" 
        stroke="#ffffff" stroke-width="3" stroke-linecap="round" opacity="0.6" />
  <circle cx="100" cy="100" r="5" fill="#ffffff" />
  <circle cx="60" cy="100" r="5" fill="#ffffff" />
  <circle cx="140" cy="100" r="5" fill="#ffffff" />
  <circle cx="100" cy="60" r="5" fill="#ffffff" />
  <circle cx="100" cy="140" r="5" fill="#ffffff" />
  
  <!-- AI Pattern -->
  <path d="M70,130 Q100,70 130,130" stroke="#ffffff" stroke-width="4" fill="none" stroke-linecap="round" />
  <path d="M70,70 Q100,130 130,70" stroke="#ffffff" stroke-width="4" fill="none" stroke-linecap="round" />
  
  <!-- Gear Icon -->
  <circle cx="140" cy="60" r="15" fill="#ffffff" />
  <circle cx="140" cy="60" r="8" fill="url(#gradient)" />
  <path d="M140,40 L140,45 M140,75 L140,80 M120,60 L125,60 M155,60 L160,60 M125,45 L130,50 M150,70 L155,75 M125,75 L130,70 M150,50 L155,45" 
        stroke="#ffffff" stroke-width="3" stroke-linecap="round" />
  
  <!-- Document Icon -->
  <rect x="45" y="50" width="30" height="40" rx="2" fill="#ffffff" />
  <path d="M50,60 L70,60 M50,70 L70,70 M50,80 L60,80" stroke="url(#gradient)" stroke-width="2" />
  
  <!-- Text Label -->
  <text x="100" y="180" font-family="Arial, sans-serif" font-size="16" font-weight="bold" text-anchor="middle" fill="#ffffff">AIPS</text>
</svg>